<svg width="50" height="50" xmlns="http://www.w3.org/2000/svg" stroke="null" style="vector-effect: non-scaling-stroke;">

 <g stroke="null">
  <title stroke="null">background</title>
  <rect stroke="null" fill="none" id="canvas_background" height="52" width="52" y="-1" x="-1"/>
 </g>
 <g stroke="null">
  <title stroke="null">Layer 1</title>
  <path stroke="null" transform="translate(0,0) scale(1,1.3447840213775635) translate(0,0) " id="svg_1" fill-rule="evenodd" fill="#f7f9f9" d="m24.997977,0c-13.806695,0 -24.997977,8.35048 -24.997977,18.652476c0,10.30083 11.191282,18.652476 24.997977,18.652476c13.805133,0 24.997977,-8.35048 24.997977,-18.652476c0,-10.301996 -11.192844,-18.652476 -24.997977,-18.652476zm0,34.973393c-12.080273,0 -21.87323,-7.307107 -21.87323,-16.320917c0,-9.013809 9.792958,-16.320917 21.87323,-16.320917s21.87323,7.307107 21.87323,16.320917c0,9.013809 -9.792958,16.320917 -21.87323,16.320917z" clip-rule="evenodd"/>
  <path stroke="null" id="svg_2" fill-rule="evenodd" fill="#fcfcfc" d="m39.468632,36.399367l-11.271849,-11.273989l11.207658,-11.115652c0.845175,-0.836616 0.845175,-2.191035 0,-3.025511c-0.843035,-0.834476 -2.212432,-0.834476 -3.055467,0l-11.192681,11.100674l-11.359576,-11.361716c-0.843035,-0.847314 -2.212432,-0.847314 -3.055467,0c-0.843035,0.845175 -0.843035,2.218851 0,3.064026l11.342458,11.344598l-11.406649,11.312503c-0.843035,0.836616 -0.843035,2.191035 0,3.025511c0.843035,0.836616 2.212432,0.836616 3.057607,0l11.391671,-11.297525l11.288966,11.288966c0.843035,0.847314 2.212432,0.847314 3.055467,0c0.840895,-0.843035 0.840895,-2.214572 -0.00214,-3.061886z" clip-rule="evenodd"/>
 </g>
</svg>