<svg width="40" height="40" xmlns="http://www.w3.org/2000/svg">

 <g>
  <title>background</title>
  <rect fill="none" id="canvas_background" height="402" width="582" y="-1" x="-1"/>
 </g>
 <g>
  <title>Layer 1</title>
  <path fill="#fcfcf9" id="svg_2" d="m20,40c-11,0 -20,-9 -20,-20s9,-20 20,-20c4.5,0 8.7,1.5 12.3,4.2c0.4,0.3 0.5,1 0.2,1.4c-0.3,0.4 -1,0.5 -1.4,0.2c-3.2,-2.5 -7.1,-3.8 -11.1,-3.8c-9.9,0 -18,8.1 -18,18s8.1,18 18,18s18,-8.1 18,-18c0,-3.2 -0.9,-6.4 -2.5,-9.2c-0.3,-0.5 -0.1,-1.1 0.3,-1.4c0.5,-0.3 1.1,-0.1 1.4,0.3c1.8,3.2 2.8,6.7 2.8,10.3c0,11 -9,20 -20,20z"/>
  <path fill="#f7f7ef" id="svg_4" d="m23,29c-0.6,0 -1,-0.4 -1,-1l0,-16c0,-0.6 0.4,-1 1,-1s1,0.4 1,1l0,16c0,0.6 -0.4,1 -1,1z"/>
  <path fill="#f7f7f4" id="svg_6" d="m17,29c-0.6,0 -1,-0.4 -1,-1l0,-16c0,-0.6 0.4,-1 1,-1s1,0.4 1,1l0,16c0,0.6 -0.4,1 -1,1z"/>
 </g>
</svg>